<svg xmlns="http://www.w3.org/2000/svg" xmlns:svg="http://www.w3.org/2000/svg" id="mdi-movie-search-outline" width="1024" height="1024" version="1.1" viewBox="0 0 1024 1024"><path id="path2" d="M 11,20 H 4 C 2.9,20 2,19.1 2,18 V 6 C 2,4.9 2.9,4 4,4 h 1 l 2,4 h 3 L 8,4 h 2 l 2,4 h 3 L 13,4 h 2 l 2,4 h 3 L 18,4 h 4 v 9 C 21.5,12.2 20.8,11.5 20,11 V 10 H 5.8 L 4,6.5 V 18 h 6.2 c 0.2,0.7 0.4,1.4 0.8,2 m 9.3,-1.1 C 20.7,18.2 21,17.4 21,16.5 21,14 19,12 16.5,12 14,12 12,14 12,16.5 c 0,2.5 2,4.5 4.5,4.5 0.9,0 1.7,-0.2 2.4,-0.7 L 22,23.4 23.4,22 20.3,18.9 M 16.5,19 C 15.1,19 14,17.9 14,16.5 14,15.1 15.1,14 16.5,14 c 1.4,0 2.5,1.1 2.5,2.5 0,1.4 -1.1,2.5 -2.5,2.5 z"/><path style="fill:#ba181b;fill-opacity:1;stroke-width:.0286055" id="path860" d="M 3.7197348,19.963402 C 3.2886342,19.9006 2.9463606,19.724573 2.615009,19.395256 2.4110066,19.192506 2.3467822,19.105265 2.2353563,18.879545 2.0002185,18.403217 2.0176799,18.955076 2.0176799,12 c 0,-6.9550758 -0.017461,-6.4032172 0.2176764,-6.8795452 C 2.418376,4.7497045 2.7460213,4.417478 3.1036949,4.2399751 3.4869594,4.0497721 3.6035125,4.0282492 4.3337306,4.0128348 L 4.977354,3.9992483 5.9783826,6.0043917 6.9794108,8.0095352 H 8.5028564 10.026302 L 9.0250298,6.0071514 8.0237572,4.0047676 H 9.003699 9.9836404 l 1.0008646,2.0023838 1.000865,2.0023838 h 1.509103 c 0.830007,0 1.509103,-0.00647 1.509103,-0.014385 0,-0.00791 -0.4441,-0.902511 -0.986889,-1.9879992 -0.54279,-1.0854882 -0.98689,-1.9800879 -0.98689,-1.9879993 0,-0.00791 0.440956,-0.014385 0.979901,-0.014385 H 14.9896 l 1.000865,2.0023838 1.000865,2.0023838 h 1.509103 c 0.830006,0 1.509102,-0.00647 1.509102,-0.014385 0,-0.00791 -0.4441,-0.902511 -0.986889,-1.9879992 -0.542789,-1.0854882 -0.986889,-1.9800879 -0.986889,-1.9879993 0,-0.00791 0.8882,-0.014385 1.973778,-0.014385 h 1.973778 V 8.4723164 12.939865 L 21.837631,12.72839 c -0.39781,-0.577465 -1.038475,-1.212797 -1.615868,-1.602418 l -0.212228,-0.14321 V 10.483038 9.9833135 L 12.908224,9.9826021 5.806913,9.9818906 4.9344458,8.2783706 C 4.4545888,7.3414347 4.0462974,6.5533162 4.0271314,6.5269963 c -0.027436,-0.037678 -0.035041,1.17943 -0.035757,5.7233017 l -9.098e-4,5.771156 h 3.0988214 3.098821 l 0.107638,0.36472 c 0.178427,0.604581 0.380541,1.106526 0.587434,1.45888 l 0.08818,0.150178 -3.5405074,-0.0035 c -1.947279,-0.0019 -3.6172821,-0.01467 -3.711118,-0.02834 z"/><path style="fill:#161a1d;fill-opacity:1;stroke-width:.0286055" id="path1659" d="m 20.450418,21.823547 -1.547091,-1.547091 -0.183487,0.118773 c -0.960198,0.621546 -2.421639,0.764976 -3.649979,0.35822 -0.296668,-0.09824 -0.79963,-0.34671 -1.075902,-0.531512 -0.783753,-0.524261 -1.408636,-1.332179 -1.718166,-2.221435 -0.195988,-0.56306 -0.23297,-0.803487 -0.232182,-1.509441 7.77e-4,-0.695293 0.03459,-0.921933 0.21696,-1.454242 0.64028,-1.868875 2.474911,-3.113073 4.443277,-3.013312 2.083474,0.105596 3.752612,1.538093 4.19734,3.602266 0.09149,0.424657 0.09254,1.282829 0.0021,1.687939 -0.09286,0.415753 -0.216388,0.762402 -0.428564,1.20265 l -0.190267,0.394789 1.543046,1.543245 1.543047,1.543246 -0.686498,0.686498 -0.686499,0.686498 -1.547091,-1.547091 z M 17.11994,18.935248 c 0.87197,-0.208265 1.553858,-0.87032 1.804567,-1.752081 0.07633,-0.268448 0.104083,-0.801193 0.05696,-1.093309 -0.168484,-1.044426 -0.926682,-1.833561 -1.969726,-2.050098 -0.532752,-0.110599 -1.167479,-0.02979 -1.644777,0.209404 -0.767147,0.384449 -1.273376,1.120997 -1.361329,1.980696 -0.05231,0.511251 0.02568,0.945636 0.252324,1.40542 0.298294,0.605145 0.785432,1.030527 1.424096,1.243557 0.457548,0.152617 0.953602,0.172079 1.437886,0.05641 z"/></svg>