<svg height="512" viewBox="0 0 512 512" width="512" xmlns="http://www.w3.org/2000/svg"><g id="filled_outline" data-name="filled outline"><path d="m344 488h-272l-32-256h336z" fill="#e82f3e"/><path d="m464 488h-96l-16-160h128z" fill="#0296e5"/><path d="m473.71 390.89-4.72 47.17-107.89-19.04-4.88-48.86z" fill="#0296e5"/><path d="m488 296h-144l8-32h128z" fill="#eaeae8"/><path d="m448 264h-16v-80l24-48h16l-24 56z" fill="#0276b4"/><g fill="#cbcbcb"><path d="m184 232h48v256h-48z"/><path d="m144 488h-40l-16-256h48z"/><path d="m312 488h-40l8-256h48z"/></g><path d="m291.714 120.036a20 20 0 0 0 -11.142-26 20 20 0 1 0 -37.139-14.856 20 20 0 0 0 -14.856 37.139c.208.083.418.139.627.215a.275.275 0 0 0 -.014.03 20 20 0 0 0 37.139 14.856c0-.011.006-.022.01-.032a19.986 19.986 0 0 0 25.375-11.352z" fill="#d18d28"/><path d="m187.88 99.034a20 20 0 0 0 -25.913-11.334 20 20 0 0 0 -37.25 14.576 20 20 0 0 0 14.576 37.25c.208-.081.4-.185.6-.272 0 .01.006.021.01.032a20 20 0 1 0 37.25-14.576c0-.011-.01-.02-.014-.031a19.985 19.985 0 0 0 10.741-25.645z" fill="#fbb540"/><path d="m99.88 48.054a20 20 0 0 0 -25.913-11.337 20 20 0 1 0 -37.25 14.576 20 20 0 0 0 14.576 37.25c.208-.081.4-.184.6-.272 0 .011.006.021.01.032a20 20 0 0 0 37.25-14.576c0-.011-.01-.02-.014-.03a19.986 19.986 0 0 0 10.741-25.643z" fill="#d18d28"/><path d="m120 184a20 20 0 0 0 -20-20 20 20 0 0 0 -40 0 20 20 0 0 0 0 40c.223 0 .439-.026.661-.033v.033a20 20 0 1 0 40 0c0-.011 0-.022 0-.033a19.986 19.986 0 0 0 19.339-19.967z" fill="#fbb540"/><path d="m200 184a20 20 0 0 0 -20-20 20 20 0 0 0 -40 0 20 20 0 0 0 0 40c.223 0 .439-.026.661-.033v.033a20 20 0 0 0 40 0c0-.011 0-.022 0-.033a19.986 19.986 0 0 0 19.339-19.967z" fill="#d18d28"/><path d="m280 184a20 20 0 0 0 -20-20 20 20 0 0 0 -40 0 20 20 0 0 0 0 40c.223 0 .439-.026.661-.033v.033a20 20 0 0 0 40 0c0-.011 0-.022 0-.033a19.986 19.986 0 0 0 19.339-19.967z" fill="#fbb540"/><path d="m360 184a20 20 0 0 0 -20-20 20 20 0 0 0 -40 0 20 20 0 0 0 0 40c.223 0 .439-.026.661-.033v.033a20 20 0 0 0 40 0c0-.011 0-.022 0-.033a19.986 19.986 0 0 0 19.339-19.967z" fill="#d18d28"/><path d="m389.936 95.625a20 20 0 0 0 -9.1-26.78 20 20 0 0 0 -35.881-17.681 20 20 0 0 0 -17.68 35.881c.2.1.406.171.608.262 0 .01-.012.019-.017.029a20 20 0 1 0 35.881 17.68c0-.01.008-.02.013-.03a19.985 19.985 0 0 0 26.176-9.361z" fill="#fbb540"/><circle cx="208" cy="352" fill="#eaeae8" r="72"/><path d="m473.71 390.89-4.72 47.17-107.89-19.04-4.88-48.86z" fill="#0276b4"/><path d="m336 296h160v32h-160z" fill="#cbcbcb"/><rect fill="#eaeae8" height="32" rx="16" width="368" x="24" y="200"/><path d="m432 248h16v16h-16z" fill="#015078"/><path d="m32.782 95.57a27.815 27.815 0 0 0 15.218 2.073 28 28 0 0 0 50.319-20.1 28 28 0 0 0 -20.319-50.014 28.019 28.019 0 0 0 -50.479 19.741 28.011 28.011 0 0 0 5.261 48.3zm.23-30.462a11.922 11.922 0 0 1 6.621-6.364 8 8 0 0 0 4.535-10.366 12 12 0 1 1 22.349-8.746 8 8 0 0 0 10.365 4.535 11.989 11.989 0 0 1 9.1 22.179 8 8 0 0 0 -4.319 10.2c.023.062.049.126.075.191a12 12 0 0 1 -22.338 8.775 8 8 0 0 0 -10.671-4.589c-.149.065-.3.132-.48.219a12 12 0 0 1 -15.237-16.034z"/><path d="m318.336 90.742a28.005 28.005 0 0 0 48.772 23.612 28.012 28.012 0 0 0 23.224-48.746 28 28 0 0 0 -48.6-23.945 28.011 28.011 0 0 0 -23.4 49.079zm7.015-26.942a12 12 0 0 1 16.068-5.459 8 8 0 0 0 10.712-3.64 12 12 0 1 1 21.529 10.608 8 8 0 0 0 3.64 10.712 11.988 11.988 0 0 1 -10.24 21.679 8 8 0 0 0 -10.523 3.848c-.008.016-.015.031-.021.046a12 12 0 0 1 -21.534-10.6c.043-.082.084-.165.123-.247a8 8 0 0 0 -3.929-10.73c-.148-.067-.3-.13-.483-.207a12.015 12.015 0 0 1 -5.342-16.01z"/><path d="m495.938 295.05c-.011-.093-8.177-32.99-8.177-32.99a8 8 0 0 0 -7.761-6.06h-16v-62.358l23.354-54.491a8 8 0 0 0 -7.354-11.151h-32a8 8 0 0 0 -7.155 4.422l-24 48a7.994 7.994 0 0 0 -.845 3.578v72h-34.937l2.138-17.1a24 24 0 0 0 -7.201-46.9h-9.179a27.961 27.961 0 0 0 -19.73-35.091 28 28 0 0 0 -54.182 0 28 28 0 0 0 -12.909 7.544 28 28 0 0 0 -12.909-7.544 27.875 27.875 0 0 0 -4.39-9.243 27.677 27.677 0 0 0 7.709-7.193 28.011 28.011 0 0 0 19.39-50.389 28.018 28.018 0 0 0 -50.324-20.119 28 28 0 0 0 -19.523 50.73 28.093 28.093 0 0 0 5.106 19.654 28.1 28.1 0 0 0 -12.148 16.56 28 28 0 0 0 -12.911 7.544 27.989 27.989 0 0 0 -12.911-7.544 27.937 27.937 0 0 0 -4.918-9.967 28.058 28.058 0 0 0 4.148-18.421 28 28 0 0 0 -20.319-50.012 28.019 28.019 0 0 0 -50.478 19.751 28.011 28.011 0 0 0 20.478 50.362c.107.145.227.281.337.424a27.651 27.651 0 0 0 -3.433 7.866 27.98 27.98 0 0 0 -12.9 7.541 28 28 0 0 0 -12.909-7.544 28 28 0 0 0 -54.182 0 28.017 28.017 0 0 0 -19.456 36.006 24 24 0 0 0 -.657 45.985l31.263 250.1a8 8 0 0 0 7.937 7h272a8 8 0 0 0 7.938-7.008l4.512-36.1 3.59 35.9a8 8 0 0 0 7.96 7.208h96a8 8 0 0 0 7.96-7.2l15.28-152.8h.76a8 8 0 0 0 8-8s-.039-32.757-.062-32.95zm-15.938 24.95h-128v-16h128zm-18.108 108.681-93.433-16.488-3.232-32.323 99.785 17.609zm15.862-140.681h-123.508l4-16h115.508zm-45.754-102.111 20.944-41.889h14.924l-19.222 44.849a8.01 8.01 0 0 0 -.646 3.151v64h-16zm-132-13.889a8 8 0 0 0 8-8 12 12 0 0 1 24 0 8 8 0 0 0 8 8 11.983 11.983 0 0 1 8.923 20h-57.849a11.985 11.985 0 0 1 8.926-20zm-75.137-78.7a12 12 0 0 1 15.6-6.685 8 8 0 0 0 10.4-4.457 12 12 0 0 1 22.284 8.913 8 8 0 0 0 4.457 10.4 11.989 11.989 0 0 1 -8.536 22.4 8 8 0 0 0 -10.2 4.673v.006a12 12 0 0 1 -22.277-8.926c.033-.08.065-.16.095-.238a8 8 0 0 0 -4.741-10.366c-.159-.058-.318-.112-.518-.177a12.015 12.015 0 0 1 -6.564-15.543zm-4.863 78.7a8 8 0 0 0 8-8 12 12 0 0 1 24 0 8 8 0 0 0 8 8 12.013 12.013 0 0 1 12 12 11.876 11.876 0 0 1 -3.086 8h-57.84a11.985 11.985 0 0 1 8.926-20zm-92.8-40.108a12 12 0 0 1 .438-22.169 8 8 0 0 0 4.535-10.366 12 12 0 1 1 22.349-8.745 8 8 0 0 0 10.365 4.535 11.989 11.989 0 0 1 9.1 22.178 8 8 0 0 0 -4.362 10.085c.035.095.073.2.114.3a12 12 0 0 1 -19.8 12.668 11.863 11.863 0 0 1 -2.539-3.911l-.023-.058a8 8 0 0 0 -10.638-4.5c-.149.065-.3.132-.482.22a11.921 11.921 0 0 1 -9.057-.237zm12.8 40.108a8 8 0 0 0 8-8 11.938 11.938 0 0 1 1.357-5.545 27.912 27.912 0 0 0 19.378-.385c.453-.177.884-.386 1.322-.584a11.977 11.977 0 0 1 1.943 6.514 8 8 0 0 0 8 8 12.013 12.013 0 0 1 12 12 11.877 11.877 0 0 1 -3.087 8h-57.839a11.985 11.985 0 0 1 8.926-20zm-80 0a8 8 0 0 0 8-8 12 12 0 0 1 24 0 8 8 0 0 0 8 8 12.013 12.013 0 0 1 12 12 11.879 11.879 0 0 1 -3.086 8h-57.84a11.985 11.985 0 0 1 8.926-20zm-20 36h336a8 8 0 0 1 0 16h-336a8 8 0 0 1 0-16zm240.254 272 3.168-101.36a79.716 79.716 0 0 0 1.394-48.93 7.956 7.956 0 0 0 .179-1.426l2.759-88.284h31.73l-15 240zm-168.738 0-15-240h31.73l2.817 90.134a79.808 79.808 0 0 0 1.726 49.128 8.057 8.057 0 0 0 -.137 1.725l3.094 99.013zm112.484-240v33.61a80.308 80.308 0 0 0 -32 0v-33.61zm45.831 61.3a80.427 80.427 0 0 0 -29.831-22.6v-38.7h31.746zm-93.831-22.6a80.427 80.427 0 0 0 -29.831 22.6l-1.915-61.3h31.746zm-26.544 127.742a80.327 80.327 0 0 0 26.544 18.858v54.7h-24.246zm42.544 23.948a80.308 80.308 0 0 0 32 0v49.61h-32zm16-14.39a64 64 0 1 1 64-64 64.072 64.072 0 0 1 -64 64zm-158.938-176h31.422l15 240h-16.422zm190.938 240v-54.7a80.344 80.344 0 0 0 26.545-18.859l-2.299 73.559zm96.938 0h-16.422l15-240h31.422l-2 16h-12.938a8 8 0 0 0 -7.761 6.06s-8.166 32.9-8.177 32.989c-.023.193-.062 32.951-.062 32.951a8 8 0 0 0 8 8h.76l4.571 45.707a8.072 8.072 0 0 0 -.261 1.227zm38.3 0-5.127-51.268 90.189 15.914-3.54 35.354zm91.369-98.487-103.034-18.183-2.733-27.33h110.32z"/></g></svg>